<?xml version="1.0" encoding="utf-8"?>
<!-- Generator: Adobe Illustrator 15.1.0, SVG Export Plug-In . SVG Version: 6.00 Build 0)  -->
<!DOCTYPE svg PUBLIC "-//W3C//DTD SVG 1.1//EN" "http://www.w3.org/Graphics/SVG/1.1/DTD/svg11.dtd">
<svg version="1.1" id="svg" xmlns="http://www.w3.org/2000/svg" xmlns:xlink="http://www.w3.org/1999/xlink" x="0px" y="0px"
	 width="400px" height="189.316px" viewBox="0 0 400 189.316" enable-background="new 0 0 400 189.316" xml:space="preserve">
<g id="svgg">
	<path id="path0" fill="#04ACEC" d="M5.545,105.08c-2.155,0.606-3.694,2.276-4.015,4.356c-0.285,1.839-0.139,2.587,2.905,14.881
		c1.421,5.738,3.259,13.17,4.084,16.517c5.346,21.658,5.253,21.338,6.798,23.457c2.083,2.854,7.486,3.221,10.25,0.695
		c1.597-1.459,2.348-3.117,3.768-8.318c0.263-0.963,0.974-3.551,1.58-5.75c0.606-2.201,2.113-7.713,3.35-12.25
		c1.236-4.539,2.506-9.188,2.821-10.334c0.316-1.146,0.909-3.311,1.318-4.811c0.409-1.499,0.776-2.759,0.816-2.799
		c0.04-0.04,0.238,0.55,0.441,1.311c0.202,0.76,0.693,2.582,1.09,4.049s1.257,4.653,1.912,7.084
		c0.654,2.429,1.404,5.203,1.667,6.166c0.263,0.963,0.717,2.649,1.01,3.75c0.293,1.1,0.708,2.638,0.922,3.416
		c0.213,0.779,0.923,3.404,1.577,5.834c1.452,5.396,2.558,9.09,3.063,10.232c2.2,4.975,9.56,5.609,12.58,1.088
		c1.135-1.699,1.183-1.877,8.62-31.986c1.234-4.996,2.498-10.097,2.808-11.334c2.217-8.84,2.415-10.582,1.42-12.494
		c-1.669-3.213-6.61-3.992-8.982-1.418c-1.398,1.516-1.561,2.053-4.105,13.578c-0.213,0.963-0.649,2.912-0.971,4.334
		c-0.322,1.42-0.998,4.42-1.503,6.666s-1.223,5.434-1.595,7.084c-0.372,1.649-0.985,4.388-1.362,6.084
		c-0.377,1.694-0.737,3.18-0.801,3.299c-0.108,0.201-0.542-1.301-2.956-10.217c-0.496-1.832-1.119-4.121-1.385-5.082
		c-0.265-0.963-1.242-4.563-2.171-8c-4.165-15.41-4.179-15.449-5.957-17.242c-2.812-2.834-8.055-2.766-10.846,0.141
		c-1.424,1.482-2.115,3.033-3.274,7.352c-0.222,0.824-0.665,2.475-0.984,3.666c-0.32,1.191-1.079,4.004-1.687,6.25
		c-0.607,2.246-1.283,4.758-1.5,5.584c-0.217,0.824-0.669,2.512-1.005,3.75c-1.246,4.586-2.913,10.789-3.599,13.391
		c-0.271,1.031-0.036,1.893-2.584-9.475c-1.75-7.812-2.287-10.203-3.479-15.5c-0.515-2.291-1.162-5.18-1.438-6.416
		c-1.705-7.654-2.493-9.463-4.494-10.324C8.58,104.882,6.68,104.759,5.545,105.08 M159.75,104.949
		c-13.318,0.705-21.395,8.905-19.497,19.793c1.321,7.571,6.493,11.215,21.05,14.829c10.578,2.628,12.947,4.353,12.947,9.429
		c0,5.281-4.617,8.683-11.833,8.717c-6.436,0.033-9.649-2.19-12.364-8.549c-1.896-4.443-3.647-5.81-6.803-5.308
		c-7.681,1.222-4.579,14.024,4.714,19.452c8.239,4.812,22.569,4.441,30.572-0.791c7.155-4.676,9.974-14.432,6.388-22.104
		c-2.536-5.428-7.475-8.233-20.091-11.41c-10.743-2.707-13.507-4.399-13.559-8.305c-0.056-4.297,4.053-7.08,10.476-7.097
		c4.278-0.013,6.166,0.642,8.269,2.856c1.127,1.188,1.639,1.957,3.481,5.223c1.41,2.501,2.662,3.379,4.833,3.391
		c5.654,0.028,7.257-6.822,2.933-12.527C177.11,107.064,169.64,104.425,159.75,104.949 M90.503,106.026
		c-2.331,0.339-4.067,1.614-4.854,3.565l-0.399,0.992v25.084v25.082l0.395,1.084c0.736,2.019,2.045,3.108,4.308,3.588
		c1.747,0.371,36.367,0.361,37.791-0.01c4.475-1.166,4.803-7.228,0.486-8.994c-0.789-0.324-1.259-0.334-15.807-0.381
		c-11.535-0.037-15.024-0.096-15.123-0.25c-0.07-0.113-0.129-9.371-0.131-20.578l-0.002-20.375h15.231h15.232l0.793-0.547
		c2.988-2.059,2.37-6.596-1.09-7.998l-0.916-0.371L109,105.893C98.857,105.878,91.132,105.935,90.503,106.026 M195.364,106.02
		c-5.994,0.997-6.068,8.698-0.094,9.804c0.579,0.106,3.745,0.176,8.007,0.176h7.051l0.044,23.043l0.045,23.041l0.416,1
		c1.827,4.383,8.323,4.873,10.543,0.795c0.985-1.812,0.952-0.902,0.955-25.42L222.333,116h7.062c4.045,0,7.438-0.072,7.945-0.168
		c6.146-1.166,6.003-8.817-0.184-9.822C235.824,105.794,196.666,105.802,195.364,106.02"/>
	<path id="path1" fill="#96C536" d="M318.833,105.024c-3.709,0.612-5.367,2.649-8.257,10.144c-0.587,1.52-1.51,3.86-4.96,12.582
		c-0.87,2.201-2.07,5.237-2.666,6.75c-0.597,1.512-1.661,4.213-2.367,6c-0.705,1.787-1.771,4.487-2.366,6
		c-0.597,1.512-1.859,4.711-2.808,7.105c-1.978,5.001-2.243,5.896-2.241,7.586c0.005,3.643,3.859,6.314,7.561,5.239
		c2.178-0.634,2.902-1.899,6.252-10.931c0.73-1.971,1.38-3.715,1.441-3.875c0.107-0.273,0.846-0.291,12.243-0.291h12.13l0.344,0.875
		c0.189,0.481,0.956,2.487,1.704,4.459c1.948,5.135,3.236,7.74,4.297,8.693c2.71,2.436,7.392,1.314,8.983-2.152
		c0.915-1.994,0.605-3.676-1.757-9.564c-1.376-3.43-1.944-4.83-4.582-11.311c-0.504-1.237-1.553-3.826-2.332-5.75
		c-0.779-1.926-1.996-4.926-2.705-6.666c-3.312-8.143-4.72-11.627-6.162-15.25C327.226,106.228,324.598,104.071,318.833,105.024
		 M254.583,105.998c-3.394,0.478-5.085,2.198-5.59,5.694c-0.226,1.556-0.207,47.613,0.021,49.24
		c0.844,6.067,7.754,7.978,10.937,3.024c1.004-1.564,1.05-2.099,1.05-12.267v-9.161l7.625-0.074
		c10.402-0.103,12.984-0.527,17.552-2.886c10.989-5.676,11.384-24.588,0.646-30.903c-2.143-1.262-4.272-1.928-7.822-2.447
		C277.006,105.927,256.419,105.742,254.583,105.998 M273.5,115.171c6.411,0.83,9.398,4.361,8.666,10.248
		c-0.757,6.094-4.878,8.023-16.833,7.881l-4.25-0.051l-0.043-9.125L260.997,115l5.627,0.006
		C269.718,115.007,272.812,115.083,273.5,115.171 M320.811,118.458c0.231,0.576,2.119,5.729,3.19,8.709
		c0.445,1.236,1.864,5.125,3.154,8.641s2.345,6.421,2.345,6.458c0,0.036-3.975,0.067-8.833,0.067c-7.158,0-8.834-0.041-8.834-0.217
		c0-0.121,0.327-1.115,0.727-2.209c0.723-1.982,1.579-4.365,3.683-10.24c0.606-1.696,1.393-3.871,1.748-4.834
		c0.354-0.963,1.046-2.894,1.536-4.291C320.476,117.832,320.526,117.751,320.811,118.458"/>
	<path id="path3" fill="#7C7D85" d="M122.083,1.055c-0.916,0.484-3.241,1.692-5.166,2.685c-1.925,0.993-4.325,2.234-5.334,2.759
		c-1.008,0.525-3.183,1.649-4.833,2.499c-1.65,0.849-3.675,1.9-4.5,2.335s-3,1.56-4.833,2.5c-1.834,0.94-4.009,2.065-4.834,2.501
		c-0.825,0.435-2.662,1.39-4.083,2.122c-1.421,0.733-4.215,2.173-6.208,3.202l-3.625,1.869v82.82v82.82h124.515h124.514l3.193-1.523
		c1.758-0.837,4.244-2.023,5.528-2.637c1.283-0.613,3.045-1.529,3.916-2.036s3.346-1.955,5.5-3.218
		c2.155-1.262,3.992-2.297,4.084-2.301c0.139-0.004,10.511,3.032,12.916,3.782l0.75,0.233l5.25-5.217l5.25-5.217l4.334-2.793
		c4.555-2.939,7.072-4.568,8.563-5.548c0.492-0.323,3.043-1.728,5.666-3.12l4.771-2.531v-3.887v-3.887l-4.083-1.637l-4.083-1.635
		l-2.209-2.205l-2.209-2.205v-2.461v-2.459H382.5h-2.333v-4.045v-4.045l-1.878-1.871l-1.878-1.873h-2.122h-2.122v-5.416V114h1.127
		h1.127l2.354-2.375l2.353-2.375l0.854-2.221c0.469-1.221,0.853-2.342,0.853-2.49c0-0.149-1.312-1.574-2.916-3.166
		s-2.912-2.947-2.907-3.01c0.006-0.062,0.801-0.751,1.768-1.529c0.965-0.779,4.447-4.092,7.739-7.362l5.985-5.946l0.737-1.971
		c0.405-1.084,1.123-3.021,1.593-4.304l0.855-2.333l3.112-3.125l3.114-3.126L396,64.75l-3.914-3.917h-2.837h-2.837l-2.438-2.458
		l-2.438-2.458l-0.893-4.667l-0.892-4.667l-0.084-5.812l-0.084-5.812l-2.837-1.354c-1.561-0.745-4.035-1.915-5.5-2.599l-2.663-1.244
		l-2.708-2.666l-2.708-2.666v-2.048v-2.049h-119.5h-119.5V10.25c0-7.958-0.044-10.082-0.209-10.079
		C123.844,0.174,123,0.572,122.083,1.055 M120,15.75v8.75h119.5H359v0.876v0.877l3.458,3.437l3.459,3.436l3.583,1.701
		c1.971,0.935,4.09,1.931,4.708,2.214l1.125,0.513v3.991v3.99l0.841,4.524c0.463,2.489,0.994,5.312,1.18,6.274l0.339,1.75
		l3.443,3.459L384.58,65h2.838h2.838l1.824,1.83l1.825,1.831l-1.919,1.961l-1.92,1.961l-1.556,4.25l-1.555,4.25l-5.269,5.304
		c-4.293,4.32-5.991,5.896-9.151,8.493l-3.881,3.189l3.691,3.695l3.692,3.694l-0.21,0.646c-0.14,0.429-0.715,1.163-1.717,2.188
		l-1.507,1.541h-2.303H368v9.584V129h3.367h3.367l0.55,0.533l0.549,0.532v5.384v5.385h2.417h2.417v1.293v1.293l3.078,3.076
		l3.079,3.074l3.213,1.273l3.213,1.273l0.048,1.168l0.049,1.168l-3.715,1.963c-2.65,1.401-5.745,3.276-10.799,6.545l-7.083,4.58
		l-4.614,4.592l-4.612,4.593l-1.304-0.366c-0.717-0.201-1.902-0.545-2.637-0.764c-0.733-0.219-3.117-0.928-5.297-1.575l-3.963-1.179
		l-1.37,0.814c-7.965,4.73-11.514,6.686-16.172,8.908L326.678,185H204.756H82.833l0.001-79.457l0.001-79.459l1.957-0.99
		c1.077-0.544,4.433-2.276,7.458-3.847c5.563-2.89,13.274-6.884,18.917-9.797c1.695-0.876,4.32-2.234,5.833-3.018
		c1.513-0.783,2.806-1.426,2.875-1.428S120,10.938,120,15.75"/>
	<path id="path4" fill="#FFD700" d="M112.942,120.781c-0.063,0.062-1.243,2.182-2.622,4.709l-2.507,4.594l-4.575,2.477
		c-2.516,1.361-4.612,2.537-4.657,2.611c-0.046,0.072,2.015,1.277,4.58,2.674l4.663,2.541l2.111,3.849
		c2.86,5.212,3.094,5.626,3.147,5.567c0.025-0.029,1.148-2.077,2.496-4.553c2.915-5.354,2.172-4.615,7.633-7.58
		c2.445-1.326,4.392-2.463,4.326-2.524s-2.183-1.235-4.704-2.61l-4.583-2.5l-2.519-4.607
		C113,120.437,113.107,120.615,112.942,120.781"/>
</g>
</svg>
